# xmcd
#
# Track frame offsets:
#	150
#	18841
#	39670
#	62683
#	76886
#	93999
#	131291
#	149063
#	172288
#	188356
#
# Disc length: 2729 seconds
#
# Revision: 0
# Processed by: cddbd v1.5.2PL0 Copyright (c) Steve Scherf et al.
# Submitted via: dBpowerAMP V4.0
#
DISCID=7f0aa70a
DTITLE=Brazilian Blues Band - 500g Blues
DYEAR=2014
DGENRE=Blues Rock
TTITLE0=500 Grama Blues
TTITLE1=Desdentado
TTITLE2=A medida do nada
TTITLE3=Dei a partida
TTITLE4=O grande Tornado
TTITLE5=Caminhos tortos
TTITLE6=A cura para ressaca
TTITLE7=Velhas histórias do mago do blues
TTITLE8=Corro demais
TTITLE9=Antes que o padre diga amém
EXTD=500g Blues
EXTT0=
EXTT1=
EXTT2=
EXTT3=
EXTT4=
EXTT5=
EXTT6=
EXTT7=
EXTT8=
EXTT9=
PLAYORDER=
